<svg xmlns="http://www.w3.org/2000/svg" viewBox="0 0 512 512">
  <!-- Fond bleu -->
  <rect width="512" height="512" rx="112" fill="#2563eb"/>
  
  <!-- Aile supérieure gauche -->
  <path fill="#ffffff" d="M256,160 C256,160 180,64 100,100 C20,136 60,256 160,256 C200,256 256,256 256,256 Z"/>
  
  <!-- Aile supérieure droite -->
  <path fill="#ffffff" d="M256,160 C256,160 332,64 412,100 C492,136 452,256 352,256 C312,256 256,256 256,256 Z"/>
  
  <!-- Aile inférieure gauche -->
  <path fill="#ffffff" d="M256,272 C256,272 180,272 100,320 C20,368 60,464 160,416 C200,384 256,272 256,272 Z"/>
  
  <!-- Aile inférieure droite -->
  <path fill="#ffffff" d="M256,272 C256,272 332,272 412,320 C492,368 452,464 352,416 C312,384 256,272 256,272 Z"/>
  
  <!-- Corps du papillon -->
  <rect x="236" y="128" width="40" height="280" rx="20" fill="#ffffff"/>
  
  <!-- Antennes -->
  <path fill="none" stroke="#ffffff" stroke-width="16" stroke-linecap="round" d="M256,128 C256,80 210,48 176,48"/>
  <path fill="none" stroke="#ffffff" stroke-width="16" stroke-linecap="round" d="M256,128 C256,80 302,48 336,48"/>
</svg>